<?xml version="1.0" standalone="no"?>
<!DOCTYPE svg PUBLIC "-//W3C//DTD SVG 20010904//EN"
 "http://www.w3.org/TR/2001/REC-SVG-20010904/DTD/svg10.dtd">
<svg version="1.0" xmlns="http://www.w3.org/2000/svg"
 width="300.000000pt" height="183.000000pt" viewBox="0 0 300.000000 183.000000"
 preserveAspectRatio="xMidYMid meet">
<metadata>
Created by potrace 1.10, written by Peter Selinger 2001-2011
</metadata>
<g transform="translate(0.000000,183.000000) scale(0.100000,-0.100000)"
fill="#000000" stroke="none">
<path d="M309 1820 c51 -8 112 -27 178 -56 34 -15 63 -18 63 -6 -1 8 -64 38
-102 47 -16 4 -28 11 -28 16 0 5 -37 8 -82 8 -81 -1 -82 -2 -29 -9z"/>
<path d="M1594 1817 c3 -10 6 -23 6 -28 0 -5 15 -15 33 -23 44 -19 77 -45 57
-45 -8 0 -24 6 -34 14 -23 17 -40 20 -31 5 12 -19 -4 -10 -31 17 -18 18 -29
23 -32 15 -2 -7 -9 -12 -15 -12 -6 0 -18 -7 -27 -15 -21 -19 -54 -9 -45 14 4
10 -4 6 -21 -9 -20 -19 -26 -21 -21 -7 4 11 1 17 -8 17 -8 0 -15 -5 -15 -10 0
-6 -11 -8 -26 -4 -24 6 -79 9 -111 5 -7 0 -10 -8 -7 -16 5 -11 21 -15 60 -15
48 0 54 -2 54 -21 0 -18 -5 -21 -29 -17 -28 4 -29 3 -33 -39 -3 -41 -2 -43 24
-43 18 0 28 -5 28 -15 0 -9 -9 -15 -25 -15 -24 0 -25 -2 -25 -65 0 -63 -1 -65
-25 -65 l-25 0 0 138 0 138 -36 35 c-29 27 -36 30 -32 14 4 -18 0 -20 -33 -20
-21 0 -41 4 -45 7 -3 4 -20 0 -36 -8 -20 -11 -33 -12 -42 -5 -6 5 -29 12 -51
14 -26 3 -41 10 -45 23 -5 13 -9 7 -13 -24 -7 -40 -27 -60 -27 -27 0 13 -4 14
-20 5 -15 -8 -24 -6 -40 10 -23 23 -49 20 -113 -12 -35 -18 -40 -18 -56 -4
-10 9 -28 16 -42 16 -19 0 -21 2 -9 10 11 7 11 10 2 10 -7 0 -10 5 -7 11 4 6
-13 0 -36 -12 -31 -16 -39 -24 -26 -27 9 -2 17 -7 17 -12 0 -5 16 -6 35 -3 31
5 35 3 35 -17 0 -15 4 -20 15 -17 7 3 23 -2 35 -11 19 -16 20 -23 14 -99 -4
-46 -10 -83 -13 -83 -21 1 -30 24 -39 95 l-9 80 -2 -97 -1 -98 30 0 c21 0 30
-5 30 -16 0 -8 4 -12 10 -9 5 3 20 -1 32 -9 44 -31 109 -13 135 37 8 16 10 16
22 -7 14 -26 50 -46 82 -46 27 0 59 18 59 32 0 9 -3 9 -12 0 -19 -19 -82 -15
-101 6 -14 15 -17 40 -17 120 0 89 3 105 20 122 43 43 115 12 108 -47 -2 -20
-8 -28 -23 -28 -11 0 -20 7 -21 15 -2 35 -5 40 -19 40 -13 0 -15 -16 -13 -102
2 -60 7 -103 13 -103 6 0 11 12 13 28 3 21 9 27 28 27 20 0 24 -5 24 -31 0
-16 4 -28 9 -24 6 3 14 -3 20 -12 8 -13 10 20 11 120 l0 137 26 0 c26 0 26 -1
22 -55 -5 -63 2 -61 27 8 15 39 22 47 42 47 16 0 23 -4 20 -12 -3 -7 -16 -36
-28 -65 l-22 -51 31 -76 31 -76 -28 0 c-25 0 -29 5 -46 60 -18 58 -46 101 -32
49 4 -13 7 -43 7 -65 0 -39 3 -43 42 -63 38 -19 44 -19 59 -5 16 15 17 14 13
-3 -3 -14 15 -30 77 -68 44 -27 89 -57 99 -67 10 -9 28 -19 39 -23 12 -4 32
-16 44 -28 51 -49 148 -118 158 -112 7 5 5 13 -7 26 -9 10 -20 17 -24 14 -4
-2 -20 9 -35 25 -16 17 -33 30 -38 30 -6 0 -25 11 -43 25 -18 14 -37 25 -43
25 -6 0 -11 4 -11 9 0 5 -17 20 -37 32 -21 13 -40 25 -43 29 -3 3 -22 16 -42
30 -21 14 -38 29 -38 34 0 4 11 21 25 38 14 17 25 42 25 59 0 16 5 29 10 29 6
0 10 -17 10 -39 0 -30 5 -42 25 -55 13 -9 34 -16 46 -16 12 0 28 -8 36 -17 13
-16 13 -16 3 5 -22 44 -3 46 25 3 16 -24 31 -38 33 -32 2 6 -4 23 -13 38 l-18
26 31 -21 c35 -26 46 -28 39 -8 -5 12 -1 13 24 4 23 -8 37 -7 54 2 17 9 28 9
43 1 32 -17 52 -13 52 9 0 15 -7 20 -25 20 l-25 0 0 140 0 140 30 0 c32 0 30
5 54 -110 8 -36 15 -57 15 -47 1 10 8 49 17 88 15 66 17 69 45 69 l29 0 0
-140 c0 -139 0 -140 -22 -140 -22 0 -23 2 -21 102 l2 103 -15 -65 c-7 -36 -16
-75 -19 -87 -3 -13 -12 -23 -20 -23 -15 0 -16 3 -39 110 l-14 65 -1 -91 c-1
-75 2 -96 18 -115 10 -13 21 -31 24 -39 4 -10 6 -8 6 8 1 25 26 29 52 9 17
-13 128 -15 147 -3 16 10 92 -17 92 -32 0 -7 5 -10 11 -7 7 5 4 14 -7 26 -20
22 -6 25 21 5 13 -10 25 -11 37 -5 9 5 29 14 45 20 29 11 26 6 -20 -29 -26
-19 -27 -21 -9 -31 10 -5 23 -7 28 -3 16 11 37 70 31 86 -3 8 1 17 9 20 9 3
17 -2 21 -12 4 -9 18 -31 33 -48 l27 -31 16 29 c18 32 32 34 73 13 37 -19 53
-19 100 1 34 14 41 14 64 1 22 -13 30 -14 51 -3 19 10 28 10 45 -1 31 -19 71
1 83 41 7 25 8 128 2 246 -1 8 -11 27 -23 41 l-22 27 -27 -20 c-22 -17 -30
-18 -46 -7 -22 13 -93 5 -93 -11 0 -18 -32 -10 -37 9 -4 16 -12 18 -46 14 -23
-2 -49 -11 -58 -19 -20 -18 -33 -18 -49 1 -9 11 -16 13 -24 5 -5 -5 -17 -10
-25 -10 -14 0 -14 2 -1 10 8 5 11 12 7 16 -4 4 -12 3 -18 -3 -7 -7 -23 -7 -50
-1 -28 8 -43 7 -53 -1 -10 -8 -16 -9 -21 -2 -9 15 -41 8 -65 -14 -19 -17 -21
-17 -40 0 -27 25 -70 22 -92 -5 l-19 -23 -29 21 c-33 25 -57 27 -93 11 -20 -9
-32 -7 -73 16 -27 15 -56 32 -64 38 -8 6 -2 -3 14 -21 22 -23 25 -32 14 -32
-9 0 -21 7 -28 15 -7 8 -18 15 -25 15 -7 0 -20 10 -29 23 -9 12 -14 15 -11 7
4 -8 -3 -4 -15 10 -16 18 -20 20 -16 7z m-745 -116 c14 -14 20 -40 25 -102 11
-123 -10 -163 -81 -157 -53 4 -64 30 -61 144 2 74 7 96 22 113 24 26 70 27 95
2z m621 -121 l0 -140 -25 0 -25 0 0 140 0 140 25 0 25 0 0 -140z m164 124 c32
-31 33 -118 2 -144 -12 -9 -11 -20 10 -66 l24 -54 -28 0 c-25 0 -29 5 -41 50
-18 71 -31 71 -31 2 0 -58 -1 -59 -25 -54 l-25 4 0 139 0 139 49 0 c32 0 55
-6 65 -16z m416 -11 c1 -16 11 -79 24 -140 l22 -113 -28 0 c-23 0 -28 4 -28
25 0 20 -5 25 -25 25 -20 0 -25 -5 -25 -25 0 -20 -5 -25 -25 -25 -14 0 -25 1
-25 3 0 6 31 178 41 225 10 48 12 52 40 52 25 0 29 -4 29 -27z m200 7 c0 -14
-7 -20 -22 -20 -23 0 -23 -1 -19 -120 l3 -120 -26 0 -26 0 0 120 0 120 -25 0
c-18 0 -25 5 -25 20 0 18 7 20 70 20 63 0 70 -2 70 -20z m85 -120 c0 -138 0
-140 -22 -140 -23 0 -23 1 -23 140 0 139 0 140 23 140 22 0 22 -1 22 -140z
m171 119 c34 -37 32 -209 -2 -244 -23 -22 -77 -19 -100 6 -16 18 -19 37 -19
121 0 93 2 102 24 119 31 25 73 24 97 -2z m142 -71 l32 -93 -3 93 c-2 90 -1
92 21 92 22 0 22 -1 22 -140 0 -139 0 -140 -22 -140 -20 0 -27 11 -47 75 -35
106 -38 107 -33 10 4 -84 4 -85 -19 -85 l-24 0 0 140 c0 135 1 140 21 140 17
0 26 -16 52 -92z"/>
<path d="M787 1673 c-10 -10 -8 -63 2 -63 5 0 16 -3 25 -6 12 -5 16 0 16 19 0
47 -22 72 -43 50z"/>
<path d="M780 1549 c0 -85 32 -108 46 -35 6 34 -3 82 -13 72 -4 -3 -12 -1 -20
5 -11 9 -13 2 -13 -42z"/>
<path d="M1570 1635 c0 -48 3 -56 18 -53 12 2 18 15 20 45 3 34 -1 44 -17 53
-20 10 -21 8 -21 -45z"/>
<path d="M2011 1634 c-1 -12 -4 -42 -7 -68 -6 -42 -5 -46 14 -46 18 0 20 4 15
38 -8 57 -21 101 -22 76z"/>
<path d="M2437 1674 c-10 -10 -8 -176 2 -193 5 -8 16 -11 25 -8 24 9 19 200
-4 205 -9 1 -19 0 -23 -4z"/>
<path d="M404 1718 c-11 -17 -14 -236 -4 -261 6 -14 9 28 9 120 l1 142 43 4
42 4 -42 1 c-23 1 -45 -3 -49 -10z"/>
<path d="M548 1659 c3 -27 -1 -46 -12 -58 -15 -17 -15 -19 -1 -24 11 -5 15
-20 15 -55 0 -61 -20 -82 -78 -82 -40 0 -61 -18 -24 -22 77 -7 92 -5 92 9 0
10 6 13 16 9 8 -3 12 -2 9 4 -11 17 4 11 26 -11 11 -11 27 -18 36 -15 8 3 26
6 39 6 13 0 24 5 24 10 0 6 -20 10 -45 10 l-45 0 0 120 c0 109 -2 120 -18 120
-10 0 -22 4 -28 10 -6 6 -8 -5 -6 -31z"/>
<path d="M460 1641 c0 -42 5 -47 28 -32 19 12 11 65 -10 69 -15 3 -18 -4 -18
-37z"/>
<path d="M185 1564 c11 -9 29 -20 40 -26 17 -9 16 -6 -4 16 -14 14 -32 26 -40
26 -13 -1 -12 -4 4 -16z"/>
<path d="M460 1520 c0 -27 4 -50 9 -50 16 0 41 31 41 50 0 19 -25 50 -41 50
-5 0 -9 -22 -9 -50z"/>
<path d="M120 1527 c0 -7 15 -21 33 -31 17 -11 29 -15 24 -11 -4 5 0 16 9 26
14 16 14 17 -3 15 -10 -2 -28 1 -40 5 -16 6 -23 5 -23 -4z"/>
<path d="M218 1508 c7 -7 12 -16 12 -20 0 -13 -28 -9 -33 5 -4 9 -6 9 -6 0 -1
-15 15 -25 46 -29 20 -2 23 1 17 19 -7 23 -22 37 -38 37 -6 0 -5 -5 2 -12z"/>
<path d="M3 1452 c0 -24 5 -46 9 -49 5 -2 3 -12 -4 -21 -12 -14 -10 -14 10 -3
25 14 28 28 8 56 -7 11 -16 29 -19 40 -3 11 -5 1 -4 -23z"/>
<path d="M315 1471 c6 -11 65 -42 65 -34 0 2 -10 13 -22 24 -24 19 -54 26 -43
10z"/>
<path d="M376 1411 c-3 -5 -3 -23 0 -40 5 -25 9 -29 24 -21 22 12 31 45 17 59
-13 13 -34 14 -41 2z"/>
<path d="M2232 1368 c-13 -55 -3 -83 20 -60 9 9 8 12 -6 12 -14 0 -16 4 -11
18 9 20 19 82 13 82 -2 0 -9 -23 -16 -52z"/>
<path d="M63 1387 c-10 -11 -13 -17 -6 -14 6 4 18 -2 26 -14 l15 -20 14 20 c8
12 18 18 21 14 4 -3 7 -4 7 0 0 3 -13 12 -29 20 -28 14 -31 13 -48 -6z"/>
<path d="M570 1369 c-12 -8 -10 -9 9 -4 14 4 21 3 18 -2 -5 -9 8 -18 56 -41 4
-2 7 2 7 8 0 9 -57 50 -70 50 -3 0 -12 -5 -20 -11z"/>
<path d="M137 1282 c4 -9 21 -13 59 -11 40 2 58 -2 74 -16 11 -10 23 -15 26
-12 10 9 -37 46 -61 48 -80 7 -103 5 -98 -9z"/>
<path d="M402 1252 c10 -38 28 -66 28 -44 0 9 8 8 31 -3 17 -9 36 -14 42 -12
7 2 -9 13 -35 25 -34 15 -46 25 -42 36 3 8 -3 19 -14 25 -19 10 -20 9 -10 -27z"/>
<path d="M770 1270 c-13 -11 -19 -20 -14 -20 6 0 15 5 22 12 9 9 12 9 12 0 0
-7 7 -12 15 -12 17 0 18 2 9 24 -8 21 -16 20 -44 -4z"/>
<path d="M540 1251 c0 -8 -8 -10 -22 -6 -13 3 -18 3 -12 -2 6 -4 16 -17 22
-28 10 -19 11 -18 17 8 4 15 5 31 1 34 -3 4 -6 1 -6 -6z"/>
<path d="M130 1241 c0 -12 46 -41 64 -41 8 0 17 4 20 9 4 5 -3 7 -13 4 -11 -3
-28 4 -40 16 -23 23 -31 26 -31 12z"/>
<path d="M320 1229 c0 -25 12 -29 32 -8 15 16 14 17 -8 22 -18 3 -24 0 -24
-14z"/>
<path d="M99 1206 c19 -20 40 -36 47 -36 6 0 46 -22 88 -50 85 -55 96 -59 96
-31 0 13 -5 18 -18 14 -10 -2 -37 10 -61 27 -24 18 -60 37 -79 44 -28 10 -57
37 -57 52 0 1 -11 5 -25 9 -24 7 -23 5 9 -29z"/>
<path d="M0 1196 c0 -15 48 -59 60 -54 5 1 -6 17 -25 34 -19 17 -35 26 -35 20z"/>
<path d="M550 1189 c0 -6 -7 -9 -15 -5 -8 3 -15 3 -15 0 0 -7 89 -44 141 -58
41 -11 49 -10 68 5 26 21 26 24 1 26 -11 1 -20 -4 -20 -13 0 -19 -9 -18 -48 6
-36 22 -46 25 -37 10 11 -17 -7 -11 -42 16 -18 14 -33 20 -33 13z"/>
<path d="M889 1177 c15 -19 46 -23 56 -7 3 6 -3 10 -14 10 -10 0 -28 3 -38 7
-16 6 -16 5 -4 -10z"/>
<path d="M2385 1180 c-4 -6 -1 -10 5 -10 6 0 24 -16 41 -35 28 -31 70 -51 54
-25 -4 6 -11 7 -17 4 -7 -5 -9 -1 -5 8 3 10 -3 24 -15 35 -20 17 -21 17 -15 0
4 -11 3 -16 -3 -12 -6 3 -10 12 -10 20 0 16 -27 28 -35 15z"/>
<path d="M1049 1152 c-12 -14 -13 -21 -4 -29 8 -8 15 -6 22 7 16 25 1 44 -18
22z"/>
<path d="M780 1147 c15 -13 40 -51 40 -63 0 -3 -11 -3 -25 0 -27 7 -36 -10
-11 -20 12 -4 37 7 75 32 11 9 -45 59 -67 61 -23 2 -25 0 -12 -10z"/>
<path d="M850 1135 c7 -8 16 -13 20 -10 4 3 13 -2 20 -10 13 -16 40 -21 40 -7
-1 7 -70 42 -85 42 -4 0 -2 -7 5 -15z"/>
<path d="M352 1122 c-18 -6 -15 -18 6 -18 9 0 27 -4 40 -8 12 -4 22 -4 22 1 0
11 -52 31 -68 25z"/>
<path d="M1710 1100 c0 -5 -8 -10 -17 -10 -13 -1 -9 -5 10 -16 34 -18 38 -16
30 14 -5 22 -23 31 -23 12z"/>
<path d="M851 1067 c-8 -11 -6 -18 9 -32 22 -20 28 -8 8 14 -10 11 -10 13 0 7
7 -4 12 -1 12 8 0 20 -14 21 -29 3z"/>
<path d="M908 1040 c19 -44 28 -49 37 -21 4 13 12 18 22 14 11 -4 14 -3 9 6
-5 7 -14 10 -21 7 -7 -2 -22 4 -33 15 -30 28 -33 24 -14 -21z"/>
<path d="M350 1060 c0 -6 7 -13 15 -16 9 -4 27 -26 41 -50 29 -50 47 -58 35
-16 -12 42 -32 69 -58 81 -30 14 -33 14 -33 1z"/>
<path d="M165 1041 c-29 -7 -28 -7 15 -14 25 -5 56 -11 70 -14 22 -5 23 -4 10
10 -19 19 -57 26 -95 18z"/>
<path d="M707 1043 c-14 -4 -16 -8 -7 -18 9 -11 17 -11 36 -3 18 8 21 14 12
20 -7 4 -15 7 -18 7 -3 -1 -13 -3 -23 -6z"/>
<path d="M1110 1004 c0 -4 129 -64 138 -64 3 0 -16 14 -44 32 -43 27 -94 45
-94 32z"/>
<path d="M1839 969 c24 -22 46 -37 50 -33 3 3 -3 11 -13 18 -11 6 -30 21 -43
34 -13 12 -27 22 -31 22 -4 0 13 -18 37 -41z"/>
<path d="M596 955 c-3 -8 -18 -15 -33 -15 -21 0 -24 -3 -15 -12 9 -9 20 -8 47
5 20 10 33 22 30 27 -9 15 -22 12 -29 -5z"/>
<path d="M1920 892 c0 -12 29 -24 41 -16 5 3 9 -2 9 -10 0 -9 7 -16 16 -16 14
0 15 3 3 18 -7 9 -13 18 -14 19 -1 8 -55 13 -55 5z"/>
<path d="M668 870 c4 -12 12 -20 17 -19 37 9 45 12 45 18 0 4 -6 8 -12 8 -7 0
-23 3 -35 7 -20 6 -22 5 -15 -14z"/>
<path d="M2013 821 c-1 -11 5 -25 13 -32 12 -9 14 -6 14 20 0 34 -25 45 -27
12z"/>
<path d="M2070 779 c0 -34 19 -57 55 -64 l30 -7 -40 37 c-22 21 -38 40 -37 42
2 3 1 7 -2 11 -3 3 -6 -6 -6 -19z"/>
<path d="M330 773 c-49 -8 -56 -15 -25 -24 24 -7 34 -5 50 11 11 11 15 19 10
19 -6 -1 -21 -4 -35 -6z"/>
<path d="M370 755 c-10 -12 -9 -15 8 -15 11 0 35 -3 53 -6 l34 -7 -27 22 c-31
25 -51 27 -68 6z"/>
<path d="M160 734 c8 -4 18 -12 23 -18 5 -8 9 -7 15 1 10 16 49 9 72 -12 10
-9 21 -12 24 -7 11 19 -24 34 -86 38 -35 2 -56 1 -48 -2z"/>
<path d="M537 724 c-13 -13 5 -24 36 -24 l32 0 -29 15 c-33 17 -31 17 -39 9z"/>
<path d="M398 708 c12 -12 70 -19 76 -9 3 5 -14 11 -39 13 -24 1 -41 0 -37 -4z"/>
<path d="M1632 714 c2 -6 -8 -20 -22 -31 l-24 -21 36 3 c23 2 42 -2 49 -11 17
-21 31 -17 19 6 -6 11 -15 18 -21 15 -5 -4 -9 -2 -9 2 0 5 -7 18 -15 29 -8 10
-14 14 -13 8z"/>
<path d="M2130 690 c0 -5 6 -13 13 -17 21 -14 147 -164 147 -176 0 -8 3 -8 12
1 8 8 2 23 -28 59 -21 26 -41 50 -44 53 -3 3 -17 21 -32 41 -25 34 -68 58 -68
39z"/>
<path d="M2440 687 c16 -8 26 -23 28 -40 4 -34 18 -36 17 -2 -2 26 -29 54 -55
55 -8 0 -4 -6 10 -13z"/>
<path d="M295 681 c-3 -6 -1 -11 4 -11 6 0 11 -5 11 -11 0 -6 8 -22 19 -35 16
-21 20 -22 37 -9 19 14 18 14 -1 16 -11 1 -23 1 -27 0 -5 0 -8 5 -8 12 -1 20
-27 49 -35 38z"/>
<path d="M515 671 c4 -12 7 -39 7 -59 l0 -37 14 27 c13 25 12 30 -7 60 -15 25
-19 27 -14 9z"/>
<path d="M560 652 c0 -14 38 -44 50 -40 6 2 -3 14 -19 26 -17 12 -31 19 -31
14z"/>
<path d="M625 636 c43 -37 66 -50 59 -33 -3 8 -24 24 -47 36 l-42 23 30 -26z"/>
<path d="M1715 620 c-3 -6 3 -24 15 -40 23 -33 36 -39 26 -14 -5 13 -1 15 19
11 26 -4 26 -4 6 14 -11 11 -25 19 -31 19 -5 0 -10 5 -10 10 0 13 -17 13 -25
0z"/>
<path d="M1380 555 c0 -9 6 -12 15 -9 8 4 15 2 15 -3 0 -5 8 -9 18 -9 9 0 30
-3 45 -7 18 -5 26 -4 22 2 -3 6 -21 13 -40 17 -20 3 -38 10 -41 15 -9 15 -34
10 -34 -6z"/>
<path d="M1692 477 c1 -14 5 -25 8 -24 3 1 16 -4 30 -11 22 -12 23 -11 8 1
-10 8 -18 19 -18 24 0 6 -7 16 -15 23 -13 11 -15 9 -13 -13z"/>
<path d="M2310 485 c0 -3 9 -16 21 -28 12 -12 28 -33 37 -47 9 -14 22 -32 29
-40 39 -45 93 -116 93 -122 0 -5 5 -8 10 -8 22 0 7 25 -82 135 -81 101 -108
129 -108 110z"/>
<path d="M1471 468 c8 -7 18 -21 22 -30 7 -21 27 -24 27 -5 0 7 -15 21 -32 31
-18 9 -26 11 -17 4z"/>
<path d="M1660 423 c1 -19 17 -30 35 -23 19 7 19 7 -2 18 -25 14 -33 15 -33 5z"/>
<path d="M522 350 c0 -52 1 -59 8 -36 5 16 5 45 1 65 -8 32 -9 29 -9 -29z"/>
<path d="M1675 360 c5 -16 2 -20 -17 -20 -18 0 -20 -2 -8 -10 9 -5 19 -5 27 2
16 13 17 48 2 48 -6 0 -8 -9 -4 -20z"/>
<path d="M2910 346 c0 -8 -7 -16 -16 -18 -12 -2 -8 -9 15 -26 21 -15 29 -17
25 -7 -4 8 -10 15 -15 15 -5 0 -7 11 -3 25 3 14 3 25 0 25 -3 0 -6 -6 -6 -14z"/>
<path d="M1567 317 c21 -29 74 -52 83 -36 5 7 15 6 34 -1 28 -10 46 -6 46 10
0 5 -10 7 -22 5 -12 -3 -27 0 -34 6 -8 7 -14 7 -19 -1 -9 -15 -35 -12 -35 4 0
17 -5 21 -43 30 l-29 7 19 -24z"/>
<path d="M1752 274 c-6 -11 -6 -28 -1 -41 11 -30 21 -29 15 0 -4 21 -1 23 27
19 29 -5 31 -3 18 12 -10 12 -16 14 -21 5 -5 -8 -11 -6 -18 6 -9 17 -10 17
-20 -1z"/>
<path d="M1843 277 c4 -10 7 -21 7 -23 0 -3 4 -3 9 1 5 3 12 1 16 -5 8 -13 25
-13 25 0 0 6 -5 10 -12 10 -6 0 -20 8 -31 18 -20 16 -20 16 -14 -1z"/>
<path d="M790 271 c0 -5 6 -16 13 -23 7 -7 18 -26 26 -43 8 -18 16 -25 18 -17
3 7 -7 31 -22 53 -29 40 -35 46 -35 30z"/>
<path d="M2517 234 c-8 -9 36 -74 51 -74 6 0 12 3 12 8 -1 13 -56 72 -63 66z"/>
<path d="M473 184 c-17 -17 -16 -24 1 -24 8 0 17 -6 19 -12 4 -9 5 -8 6 2 0 8
-3 22 -7 31 -6 14 -9 15 -19 3z"/>
<path d="M2070 168 c-31 -47 -33 -51 -20 -46 6 2 12 8 12 13 1 6 8 15 16 21 8
6 13 16 11 22 -2 7 -10 3 -19 -10z"/>
<path d="M243 140 c1 -12 8 -15 24 -12 30 6 29 18 -1 24 -18 4 -24 1 -23 -12z"/>
<path d="M2570 139 c0 -5 5 -7 10 -4 6 3 10 0 10 -9 0 -15 51 -98 57 -92 5 5
-40 99 -52 108 -14 11 -25 10 -25 -3z"/>
<path d="M1406 115 c16 -25 34 -33 34 -16 0 12 -29 41 -41 41 -5 0 -2 -11 7
-25z"/>
<path d="M2966 112 c-7 -12 4 -52 15 -52 12 0 12 47 0 55 -5 3 -12 2 -15 -3z"/>
<path d="M960 96 c0 -9 30 -60 30 -51 0 6 3 20 6 33 5 18 2 22 -15 22 -11 0
-21 -2 -21 -4z"/>
<path d="M2102 70 c-7 -16 -21 -31 -30 -33 -16 -4 -15 -5 1 -6 9 0 17 -5 17
-11 0 -5 5 -10 10 -10 6 0 10 9 10 20 0 11 4 20 10 20 9 0 9 34 -1 44 -2 3
-10 -8 -17 -24z"/>
<path d="M123 72 c-3 -12 -9 -20 -13 -17 -5 3 -11 1 -15 -4 -6 -11 27 -7 50 7
15 8 15 10 0 22 -14 11 -17 10 -22 -8z"/>
<path d="M1790 41 c0 -14 28 -40 43 -41 5 0 7 5 5 11 -2 6 -7 9 -10 7 -4 -2
-14 6 -22 17 -10 13 -15 15 -16 6z"/>
</g>
</svg>
